<svg width="37" height="29" viewBox="0 0 37 29" fill="none" xmlns="http://www.w3.org/2000/svg">
<path fill-rule="evenodd" clip-rule="evenodd" d="M5.53162 0H31.367C34.0221 0 36.1901 2.12346 36.2109 4.73473C36.2114 4.75675 36.2115 4.77877 36.2111 4.80076V23.8634C36.2111 26.4921 34.0349 28.6361 31.367 28.6361H5.53162C2.86367 28.6361 0.6875 26.4921 0.6875 23.8634V4.77269C0.6875 2.14408 2.86367 0 5.53162 0ZM32.8096 4.06321C32.5425 3.54287 31.9934 3.18179 31.3669 3.18179H5.53154C4.90513 3.18179 4.35602 3.54277 4.08897 4.06298L18.4494 13.9671L32.8096 4.06321ZM3.91683 7.82814L17.5235 17.2123C18.0794 17.5958 18.8194 17.5958 19.3754 17.2123L32.9816 7.82845V23.8634C32.9816 24.7348 32.2513 25.4543 31.3669 25.4543H5.53154C4.64714 25.4543 3.91683 24.7348 3.91683 23.8634V7.82814Z" fill="#373867"/>
<mask id="mask0_3524_1548" style="mask-type:luminance" maskUnits="userSpaceOnUse" x="0" y="0" width="37" height="29">
<path fill-rule="evenodd" clip-rule="evenodd" d="M5.53162 0H31.367C34.0221 0 36.1901 2.12346 36.2109 4.73473C36.2114 4.75675 36.2115 4.77877 36.2111 4.80076V23.8634C36.2111 26.4921 34.0349 28.6361 31.367 28.6361H5.53162C2.86367 28.6361 0.6875 26.4921 0.6875 23.8634V4.77269C0.6875 2.14408 2.86367 0 5.53162 0ZM32.8096 4.06321C32.5425 3.54287 31.9934 3.18179 31.3669 3.18179H5.53154C4.90513 3.18179 4.35602 3.54277 4.08897 4.06298L18.4494 13.9671L32.8096 4.06321ZM3.91683 7.82814L17.5235 17.2123C18.0794 17.5958 18.8194 17.5958 19.3754 17.2123L32.9816 7.82845V23.8634C32.9816 24.7348 32.2513 25.4543 31.3669 25.4543H5.53154C4.64714 25.4543 3.91683 24.7348 3.91683 23.8634V7.82814Z" fill="white"/>
</mask>
<g mask="url(#mask0_3524_1548)">
<rect x="-0.927734" y="-4.77246" width="38.753" height="38.1815" fill="#373867"/>
</g>
</svg>
