<svg width="27" height="26" viewBox="0 0 27 26" fill="none" xmlns="http://www.w3.org/2000/svg">
<path fill-rule="evenodd" clip-rule="evenodd" d="M1.5049 1.23223C2.49584 0.255925 4.10243 0.255925 5.09337 1.23223L13.4488 9.4645L21.8043 1.23223C22.7951 0.255925 24.4018 0.255925 25.3927 1.23223C26.3836 2.20855 26.3836 3.79145 25.3927 4.76778L17.0372 13L25.3927 21.2323C26.3836 22.2085 26.3836 23.7915 25.3927 24.7677C24.4018 25.744 22.7951 25.744 21.8043 24.7677L13.4488 16.5355L5.09337 24.7677C4.10243 25.744 2.49584 25.744 1.5049 24.7677C0.513991 23.7915 0.513991 22.2085 1.5049 21.2323L9.86039 13L1.5049 4.76778C0.513991 3.79145 0.513991 2.20855 1.5049 1.23223Z" fill="#373867"/>
</svg>
